<?xml version="1.0" encoding="UTF-8"?>
<svg width="27px" height="24px" viewBox="0 0 27 24" version="1.1" xmlns="http://www.w3.org/2000/svg" xmlns:xlink="http://www.w3.org/1999/xlink">
    <!-- Generator: Sketch 48.2 (47327) - http://www.bohemiancoding.com/sketch -->
    <title>nany / icon / we-icon</title>
    <desc>Created with Sketch.</desc>
    <defs></defs>
    <g id="WE-new-skin-&amp;-alignment---List" stroke="none" stroke-width="1" fill="none" fill-rule="evenodd" transform="translate(-16.000000, -14.000000)">
        <g id="nany-header-/-main" fill="#FFFFFF">
            <g id="nany-/-icon-/-we-icon" transform="translate(16.000000, 14.000000)">
                <path d="M16,2 L22,2 L22,10 L21,10 L21,3 L16,3 L16,2 Z M6,2 L6,3 L1,3 L1,23 L13,23 L13,24 L0,24 L0,2 L6,2 Z" id="board"></path>
                <path d="M9,2 C9,0.8954305 9.8954305,0 11,0 C12.1045695,0 13,0.8954305 13,2 L16,2 L16,6 L6,6 L6,2 L9,2 Z M11,3 C11.5522847,3 12,2.55228475 12,2 C12,1.44771525 11.5522847,1 11,1 C10.4477153,1 10,1.44771525 10,2 C10,2.55228475 10.4477153,3 11,3 Z" id="clip"></path>
                <g id="lines" stroke-width="1" transform="translate(5.000000, 9.000000)">
                    <rect id="Rectangle-3" x="0" y="0" width="12" height="1"></rect>
                    <rect id="Rectangle-6" x="0" y="3" width="8" height="1"></rect>
                    <rect id="Rectangle-6-Copy" x="0" y="6" width="8" height="1"></rect>
                    <rect id="Rectangle-7" x="0" y="9" width="5" height="1"></rect>
                </g>
                <polygon id="play" points="15 24.0266077 15 12 26.5701133 18.0133038"></polygon>
            </g>
        </g>
    </g>
</svg>