<svg xmlns="http://www.w3.org/2000/svg" xmlns:xlink="http://www.w3.org/1999/xlink" viewBox="0 0 32 32"><defs><style>.a{fill:#fff;}.b{fill:url(#a);}.c{fill:url(#b);}.d{fill-rule:evenodd;}.e{mask:url(#c);}.f{fill:#f3f3f3;}</style><linearGradient id="a" x1="791.83" y1="7875.23" x2="800.98" y2="7875.23" gradientTransform="translate(-416.48 -4587.17) scale(0.55 0.59)" gradientUnits="userSpaceOnUse"><stop offset="0.1"/><stop offset="0.9" stop-opacity="0"/></linearGradient><linearGradient id="b" x1="-2462.8" y1="-5354.86" x2="-2453.65" y2="-5354.86" gradientTransform="translate(1345.42 4308.52) scale(0.55 0.8)" xlink:href="#a"/><mask id="c" x="0" y="0" width="32" height="32" maskUnits="userSpaceOnUse"><path class="a" d="M28.54,21.47l-6.89-6.89A10,10,0,0,0,6.49,3.67l6.92,6.92a2,2,0,0,1-2.82,2.83L3.66,6.49A10,10,0,0,0,12,22a9.56,9.56,0,0,0,2.58-.35l6.88,6.89A5,5,0,0,0,30,25,5,5,0,0,0,28.54,21.47Zm-1.42,5.65a3,3,0,0,1-4.24,0h0l-7.76-7.75A7.9,7.9,0,0,1,12,20a8,8,0,0,1-8-8,7.82,7.82,0,0,1,.28-2.06l4.89,4.89A4,4,0,0,0,16,12a4,4,0,0,0-1.17-2.83L9.94,4.28A7.7,7.7,0,0,1,12,4a8,8,0,0,1,8,8,7.87,7.87,0,0,1-.64,3.12l7.76,7.76A3,3,0,0,1,27.12,27.12Z"/><rect class="b" x="17.9" y="24.53" width="5.02" height="3" transform="translate(24.38 -6.81) rotate(45)"/><rect class="c" x="2.18" y="14.07" width="4.99" height="4.11" transform="translate(-8.66 26.32) rotate(-111.23)"/><polygon class="d" points="20 23 15 18 9 17 4 19 15 28 20 23"/></mask></defs><title>app-icon-monodark-</title><g class="e"><rect class="f" width="32" height="32"/></g><path class="f" d="M13.07,20l-1.41,1.41L14.25,24H7.07a2,2,0,0,1,0-4h2V18h-2a4,4,0,0,0,0,8h7.18l-2.59,2.58L13.07,30l5-5Z"/></svg>