<?xml version="1.0" encoding="UTF-8"?>
<svg width="32px" height="32px" viewBox="0 0 32 32" version="1.1" xmlns="http://www.w3.org/2000/svg" xmlns:xlink="http://www.w3.org/1999/xlink">
    <!-- Generator: Sketch 54.1 (76490) - https://sketchapp.com -->
    <title>header_split_refreshLocal_OFF</title>
    <desc>Created with Sketch.</desc>
    <g id="header_split_refreshLocal_OFF" stroke="none" stroke-width="1" fill="none" fill-rule="evenodd">
        <path d="M23.0991008,9.95345804 C19.9772677,6.82767637 15.0338561,6.05224993 11.0262794,8.3660254 C6.24335321,11.1274492 4.60460165,17.2433532 7.3660254,22.0262794 C10.1274492,26.8092057 16.2433532,28.4479572 21.0262794,25.6865335 C21.5045721,25.4103911 22.1161625,25.5742663 22.3923048,26.0525589 C22.6684472,26.5308515 22.5045721,27.1424419 22.0262794,27.4185843 C16.286768,30.7322928 8.9476831,28.7657909 5.6339746,23.0262794 C2.3202661,17.286768 4.28676796,9.9476831 10.0262794,6.6339746 C14.8353715,3.85744402 20.7674654,4.78795575 24.5136651,8.53889376 L27.0262794,6.02627944 L27.0262794,13.0262794 L20.0262794,13.0262794 L23.0991008,9.95345804 L23.0991008,9.95345804 Z" id="Path" fill="#FFFFFF" fill-rule="nonzero"></path>
    </g>
</svg>