<?xml version="1.0" encoding="UTF-8"?>
<svg width="28px" height="25px" viewBox="0 0 28 25" version="1.1" xmlns="http://www.w3.org/2000/svg" xmlns:xlink="http://www.w3.org/1999/xlink">
    <!-- Generator: Sketch 49.3 (51167) - http://www.bohemiancoding.com/sketch -->
    <title>action_addCrewLabor_OFF</title>
    <desc>Created with Sketch.</desc>
    <defs></defs>
    <g id="Symbols" stroke="none" stroke-width="1" fill="none" fill-rule="evenodd">
        <g id="nany-icon-/-add-crew" transform="translate(-2.000000, -4.000000)" fill="#5AAAFA">
            <g id="action_addCrewLabor_OFF" transform="translate(2.000000, 4.000000)">
                <path d="M24,19 L28,19 L28,21 L24,21 L24,25 L22,25 L22,21 L18,21 L18,19 L22,19 L22,15 L24,15 L24,19 Z" id="header_createWO_OFF"></path>
                <path d="M19.7692308,17 L4.07692308,17 L4.07692308,16.2692308 C4.07692308,13.7839494 6.0916417,11.7692308 8.57692308,11.7692308 L15.2692308,11.7692308 C17.7545121,11.7692308 19.7692308,13.7839494 19.7692308,16.2692308 L19.7692308,17 Z M11.9230769,10.4615385 C9.03420285,10.4615385 6.69230769,8.11964331 6.69230769,5.23076923 C6.69230769,2.34189515 9.03420285,0 11.9230769,0 C14.811951,0 17.1538462,2.34189515 17.1538462,5.23076923 C17.1538462,8.11964331 14.811951,10.4615385 11.9230769,10.4615385 Z" id="Combined-Shape"></path>
                <path d="M3.80683488,11.7065199 L0,11.7065199 C0.166577253,10.1996388 1.44411615,9.02759068 2.99540155,9.02759068 L5.00459845,9.02759068 C5.6130113,9.02759068 6.17931641,9.20787535 6.65300613,9.51793703 C6.789779,9.67964469 6.93375502,9.83506438 7.08443904,9.98370093 C5.8224846,10.14525 4.68459294,10.7709276 3.80683488,11.7065199 Z M5.2107248,3.28855507 C5.07309343,3.83626117 5,4.40959464 5,5 C5,6.00746652 5.21283301,6.96522322 5.59598961,7.83076069 C5.15021811,8.16192767 4.59799009,8.35785838 4,8.35785838 C2.52046826,8.35785838 1.32107081,7.15846093 1.32107081,5.67892919 C1.32107081,4.19939745 2.52046826,3 4,3 C4.43569284,3 4.84709282,3.10401007 5.2107248,3.28855507 Z" id="Combined-Shape"></path>
                <path d="M20.3525907,11.8831498 C19.4553108,10.84988 18.2553558,10.1552148 16.915561,9.98370093 C17.0342526,9.86662207 17.1487822,9.74533463 17.2589079,9.62008059 C17.7325029,9.32218291 18.2930653,9.14987297 18.8938728,9.14987297 L20.9438305,9.14987297 C22.5265869,9.14987297 23.8300434,10.3456985 24,11.8831498 L20.3525907,11.8831498 Z M18.3422662,7.96630307 C18.7642348,7.06564242 19,6.06035416 19,5 C19,4.39510538 18.9232749,3.80813086 18.7790258,3.24827739 C19.1259703,3.08887852 19.5120316,3 19.9188516,3 C21.4283988,3 22.6521285,4.22372974 22.6521285,5.73327687 C22.6521285,7.24282401 21.4283988,8.46655375 19.9188516,8.46655375 C19.3316802,8.46655375 18.7877526,8.28140446 18.3422662,7.96630307 Z" id="Combined-Shape"></path>
            </g>
        </g>
    </g>
</svg>