<?xml version="1.0" encoding="UTF-8"?>
<svg width="25px" height="27px" viewBox="0 0 25 27" version="1.1" xmlns="http://www.w3.org/2000/svg" xmlns:xlink="http://www.w3.org/1999/xlink">
    <!-- Generator: Sketch 49.3 (51167) - http://www.bohemiancoding.com/sketch -->
    <title>header_signature_ON</title>
    <desc>Created with Sketch.</desc>
    <defs></defs>
    <g id="Symbols" stroke="none" stroke-width="1" fill="none" fill-rule="evenodd">
        <g id="nany-icon-/-header-/-signature" transform="translate(-4.000000, -3.000000)" fill="#FFFFFF">
            <path d="M27,10 L27.6187184,9.38128157 L28.6187184,10.3812816 L21.8054564,17.1945436 L20.8054564,16.1945436 L26,11 L24.2218254,11 L9.22182541,26 L6,22.7781746 L23.4954796,5.28269501 C23.5335238,5.23775829 23.5737361,5.19403083 23.6161165,5.15165043 L24.3838835,4.38388348 C25.2123106,3.55545635 26.5554564,3.55545635 27.3838835,4.38388348 C28.2123106,5.2123106 28.2123106,6.55545635 27.3838835,7.38388348 L27,7.76776695 L27,10 Z M4.03876489,27.9041991 L5.0649938,23.788792 L8.15417197,26.8779702 L4.03876489,27.9041991 Z M10.7861086,29.1193469 L9.91881133,28.6215564 C10.4778498,27.6475471 11.4523052,27.1587297 12.7680223,27.1587297 C13.591663,27.1587297 14.1121772,27.334266 14.8596936,27.7533943 C14.9544202,27.8067059 14.9544202,27.8067059 15.0448365,27.8573842 C15.5245932,28.1246985 15.8032196,28.2203066 16.2197039,28.2203066 C16.6321561,28.2203066 16.7624013,28.1243881 16.7750664,27.971048 C16.7939174,27.7428112 16.6093038,27.387749 16.2687584,27.0954752 C15.5660836,26.4924031 15.7227494,25.4008808 16.4575042,24.7308782 C17.2420555,24.0154678 18.4123348,23.9735502 19.5422462,24.7601427 C20.9674926,25.7523339 22.4581499,27.0027567 24.0152837,28.5113448 L23.3194612,29.2295585 C21.7990807,27.756578 20.3492065,26.5403656 18.9709041,25.5808547 C18.214492,25.0542753 17.5613219,25.0776708 17.1313015,25.4697945 C16.7955419,25.7759643 16.7375486,26.1800155 16.9200349,26.3366347 C17.483942,26.8206092 17.8200931,27.4671192 17.7716728,28.053362 C17.7117895,28.7783919 17.1117245,29.2203066 16.2197039,29.2203066 C15.6005283,29.2203066 15.173265,29.0736952 14.5581046,28.7309356 C14.4629184,28.6775853 14.4629184,28.6775853 14.3706292,28.625642 C13.7591715,28.2828011 13.3912652,28.1587297 12.7680223,28.1587297 C11.7902898,28.1587297 11.1543703,28.4777269 10.7861086,29.1193469 Z" id="header_signature_ON"></path>
        </g>
    </g>
</svg>