<?xml version="1.0" encoding="UTF-8"?>
<svg width="24px" height="24px" viewBox="0 0 24 24" version="1.1" xmlns="http://www.w3.org/2000/svg" xmlns:xlink="http://www.w3.org/1999/xlink">
    <!-- Generator: Sketch 49.3 (51167) - http://www.bohemiancoding.com/sketch -->
    <title>header_materialsAndTools_OFF</title>
    <desc>Created with Sketch.</desc>
    <defs></defs>
    <g id="Symbols" stroke="none" stroke-width="1" fill="none" fill-rule="evenodd">
        <g id="nany-icon-/-header-/-materials&amp;tools" transform="translate(-4.000000, -4.000000)" fill="#FFFFFF">
            <g id="header_materialsAndTools_OFF" transform="translate(4.000000, 4.000000)">
                <path d="M16,2 L15,2 L15,1 L8,1 L8,2 L7,2 L7,1 C7,0.44771525 7.44771525,1.01453063e-16 8,0 L15,0 C15.5522847,-1.01453063e-16 16,0.44771525 16,1 L16,2 Z" id="Combined-Shape"></path>
                <path d="M23,14.5358984 L21,11.0717968 L13,11.0717968 L10.7320508,15 L0,15 L0,8 L4,8 L4,10 L6,10 L6,8 L17,8 L17,10 L19,10 L19,8 L23,8 L23,14.5358984 Z M23,7 L19,7 L19,6 L17,6 L17,7 L6,7 L6,6 L4,6 L4,7 L0,7 L0,5 C0,3.8954305 0.8954305,3 2,3 L21,3 C22.1045695,3 23,3.8954305 23,5 L23,7 Z" id="Combined-Shape"></path>
                <path d="M14.8452995,21.7320508 L19.1547005,21.7320508 L21.3094011,18 L19.1547005,14.2679492 L14.8452995,14.2679492 L12.6905989,18 L14.8452995,21.7320508 Z M13.6905989,12.2679492 L20.3094011,12.2679492 L23.6188022,18 L20.3094011,23.7320508 L13.6905989,23.7320508 L10.3811978,18 L13.6905989,12.2679492 Z" id="Polygon" fill-rule="nonzero"></path>
            </g>
        </g>
    </g>
</svg>