<?xml version="1.0" encoding="UTF-8"?>
<svg width="31px" height="47px" viewBox="0 0 31 47" version="1.1" xmlns="http://www.w3.org/2000/svg" xmlns:xlink="http://www.w3.org/1999/xlink">
    <!-- Generator: Sketch 49.3 (51167) - http://www.bohemiancoding.com/sketch -->
    <title>map_wo_selected</title>
    <desc>Created with Sketch.</desc>
    <defs>
        <path d="M25.5,47 C38.2370819,25 40,24.2758002 40,16.7061194 C40,9.1364387 33.5081289,3 25.5,3 C17.4918711,3 11,9.1364387 11,16.7061194 C11,24.2758002 12.3233675,25 25.5,47 Z" id="path-1"></path>
    </defs>
    <g id="Symbols" stroke="none" stroke-width="1" fill="none" fill-rule="evenodd">
        <g id="nany-icon-/-map-marker-/-selected" transform="translate(-10.000000, -2.000000)">
            <g id="map_wo_selected">
                <use fill="#4178BE" fill-rule="evenodd" xlink:href="#path-1"></use>
                <path stroke="#FFFFFF" stroke-width="2" d="M25.4851721,45.036466 C28.8162535,39.3300778 34.5227591,29.7544598 34.8769617,29.1431844 C37.1512818,25.21821 38.1061036,23.1875243 38.5808768,21.1914368 C38.8827497,19.9222734 39,18.6121398 39,16.7061194 C39,9.70170602 32.968042,4 25.5,4 C18.031958,4 12,9.70170602 12,16.7061194 C12,18.6845349 12.0969335,19.9657832 12.3648375,21.2127879 C12.8044846,23.2592001 13.7500759,25.3564565 15.9316197,29.1455948 C17.0800359,31.1402868 23.0018745,40.9202949 25.4851721,45.036466 Z"></path>
                <path stroke="#000000" stroke-width="1" d="M25.0710527,47.2569128 C23.660968,44.902604 15.9669528,32.2132756 14.6316739,29.8940206 C12.3786594,25.9807443 11.3782665,23.7619417 10.8983,21.5278559 C10.604239,20.1590988 10.5,18.781288 10.5,16.7061194 C10.5,8.85380503 17.2218277,2.5 25.5,2.5 C33.7781723,2.5 40.5,8.85380503 40.5,16.7061194 C40.5,18.7194228 40.3728994,20.1396218 40.0401661,21.5385315 C39.522497,23.714966 38.5177173,25.8519007 36.174819,29.8952258 C35.7819063,30.5733064 29.0163518,41.9243334 25.9327111,47.2505217 L25.5073082,47.9852947 L25.0710527,47.2569128 Z"></path>
            </g>
        </g>
    </g>
</svg>