<svg xmlns="http://www.w3.org/2000/svg" xmlns:xlink="http://www.w3.org/1999/xlink" viewBox="0 0 32 32"><defs><style>.a{fill:none;stroke:#fff;stroke-miterlimit:10;stroke-width:2px;}.b{fill:url(#a);}.c{fill:#fff;}.d{mask:url(#b);}.e{fill:#f3f3f3;}</style><linearGradient id="a" x1="-6.34" y1="-206.61" x2="-2.79" y2="-206.61" gradientTransform="translate(-199.61 26.79) rotate(90)" gradientUnits="userSpaceOnUse"><stop offset="0.09"/><stop offset="1" stop-opacity="0"/></linearGradient><mask id="b" x="0" y="0" width="32" height="32" maskUnits="userSpaceOnUse"><path class="a" d="M15,22v2a1,1,0,0,1-1,1H8a1,1,0,0,1-1-1V20"/><polygon class="b" points="5.41 20.45 5.41 24 8.59 24 8.59 21.03 5.41 20.45"/><rect class="c" x="22" y="6" width="2" height="20"/><path class="a" d="M23,9,3.8,12.84a1,1,0,0,0-.8,1v4.36a1,1,0,0,0,.8,1L23,23"/></mask></defs><title>app-icon-monodark-</title><g class="d"><rect class="e" width="32" height="32"/></g><rect class="e" x="28" y="9" width="2" height="9"/><path class="e" d="M29,20a1.5,1.5,0,1,0,1.5,1.5A1.5,1.5,0,0,0,29,20Z"/></svg>