<?xml version="1.0" encoding="UTF-8"?>
<svg width="43px" height="32px" viewBox="0 0 43 32" version="1.1" xmlns="http://www.w3.org/2000/svg" xmlns:xlink="http://www.w3.org/1999/xlink">
    <!-- Generator: Sketch 49.3 (51167) - http://www.bohemiancoding.com/sketch -->
    <title>header_app_ServiceRequest_back_OFF</title>
    <desc>Created with Sketch.</desc>
    <defs></defs>
    <g id="header_app_ServiceRequest_back_OFF" stroke="none" stroke-width="1" fill="none" fill-rule="evenodd">
        <path d="M32.9107942,19.298252 C33.3689459,19.6581369 33.7527031,19.9829156 34.062066,20.272588 C32.2082761,22.9468315 29.2001017,24.7601801 25.7584412,24.9917355 L25.7584412,29.638077 L19.8667229,23.9872486 C15.9948638,20.8232647 14,17.4827734 14,14.0084412 C14,7.928647 18.928647,3 25.0084412,3 C26.6187949,3 28.1483888,3.34577415 29.5270284,3.96712818 L28.9113299,5.33534819 C28.5828139,5.18728574 28.2443741,5.05733984 27.8972838,4.94678357 C26.9862594,4.65660135 26.0156384,4.5 25.0084412,4.5 C19.7570741,4.5 15.5,8.75707412 15.5,14.0084412 C15.5,16.9709694 17.2623843,19.9221629 20.8607211,22.8654356 L24.2584412,26.1218799 L24.2584412,23.5168824 L25.0084412,23.5168824 C27.8646556,23.5168824 30.426732,22.2575276 32.1696898,20.2637987 C32.4365552,19.9585375 32.6842181,19.6360605 32.9107942,19.298252 Z M30.8835391,9.05689091 L30.8835391,7.75 L28.9174154,7.75 L28.9174154,6.75 L30.8057789,6.75 L31.6942702,6.75 L33.8327247,6.75 L33.8327247,7.75 L31.866601,7.75 L31.866601,9.05689091 C33.4763647,9.16304091 34.6886847,9.41210198 36.4051628,10.88465 C37.813366,12.0927322 38.5584012,13.7581 38.75,15.75 L23.75,15.75 C23.9416479,13.7581 24.7880308,12.0765738 26.2339342,10.88465 C27.6716569,9.69946975 29.0236353,9.16304091 30.8835391,9.05689091 Z M22.75,16.75 L39.75,16.75 L39.75,17.75 L22.75,17.75 L22.75,16.75 Z" id="header_app_ServiceRequest_noBack" fill="#F9F9F9" fill-rule="nonzero"></path>
        <g id="nany-icon-/-back-arrow" fill="#FFFFFF">
            <polygon id="header_back_OFF" points="4.09980033 16 7.53567422 22.5 4.18511389 22.5 1 16 4.64943967 9.5 8 9.5"></polygon>
        </g>
    </g>
</svg>