<?xml version="1.0" encoding="UTF-8"?>
<svg width="32px" height="32px" viewBox="0 0 32 32" version="1.1" xmlns="http://www.w3.org/2000/svg" xmlns:xlink="http://www.w3.org/1999/xlink">
    <!-- Generator: Sketch 49.3 (51167) - http://www.bohemiancoding.com/sketch -->
    <title>nany-icon / header / service-request</title>
    <desc>Created with Sketch.</desc>
    <defs></defs>
    <g id="nany-icon-/-header-/-service-request" stroke="none" stroke-width="1" fill="none" fill-rule="evenodd">
        <path d="M21.9107942,19.298252 C22.3689459,19.6581369 22.7527031,19.9829156 23.062066,20.272588 C21.2082761,22.9468315 18.2001017,24.7601801 14.7584412,24.9917355 L14.7584412,29.638077 L8.86672292,23.9872486 C4.99486383,20.8232647 3,17.4827734 3,14.0084412 C3,7.928647 7.928647,3 14.0084412,3 C15.6187949,3 17.1483888,3.34577415 18.5270284,3.96712818 L17.9113299,5.33534819 C17.5828139,5.18728574 17.2443741,5.05733984 16.8972838,4.94678357 C15.9862594,4.65660135 15.0156384,4.5 14.0084412,4.5 C8.75707412,4.5 4.5,8.75707412 4.5,14.0084412 C4.5,16.9709694 6.26238425,19.9221629 9.8607211,22.8654356 L13.2584412,26.1218799 L13.2584412,23.5168824 L14.0084412,23.5168824 C16.8646556,23.5168824 19.426732,22.2575276 21.1696898,20.2637987 C21.4365552,19.9585375 21.6842181,19.6360605 21.9107942,19.298252 Z M19.8835391,9.05689091 L19.8835391,7.75 L17.9174154,7.75 L17.9174154,6.75 L19.8057789,6.75 L20.6942702,6.75 L22.8327247,6.75 L22.8327247,7.75 L20.866601,7.75 L20.866601,9.05689091 C22.4763647,9.16304091 23.6886847,9.41210198 25.4051628,10.88465 C26.813366,12.0927322 27.5584012,13.7581 27.75,15.75 L12.75,15.75 C12.9416479,13.7581 13.7880308,12.0765738 15.2339342,10.88465 C16.6716569,9.69946975 18.0236353,9.16304091 19.8835391,9.05689091 Z M11.75,16.75 L28.75,16.75 L28.75,17.75 L11.75,17.75 L11.75,16.75 Z" id="header_app_ServiceRequest_noBack" fill="#F9F9F9" fill-rule="nonzero"></path>
    </g>
</svg>