<?xml version="1.0" encoding="UTF-8"?>
<svg width="24px" height="24px" viewBox="0 0 24 24" version="1.1" xmlns="http://www.w3.org/2000/svg" xmlns:xlink="http://www.w3.org/1999/xlink">
    <!-- Generator: Sketch 49 (51002) - http://www.bohemiancoding.com/sketch -->
    <title>action_getInfo_on</title>
    <desc>Created with Sketch.</desc>
    <defs></defs>
    <g id="Symbols" stroke="none" stroke-width="1" fill="none" fill-rule="evenodd">
        <g id="nany-icon-/-info" transform="translate(-4.000000, -4.000000)" fill="#5AAAFA">
            <g id="action_getInfo_on" transform="translate(4.000000, 4.000000)">
                <path d="M12,24 C5.372583,24 0,18.627417 0,12 C0,5.372583 5.372583,0 12,0 C18.627417,0 24,5.372583 24,12 C24,18.627417 18.627417,24 12,24 Z M12,22 C17.5228475,22 22,17.5228475 22,12 C22,6.4771525 17.5228475,2 12,2 C6.4771525,2 2,6.4771525 2,12 C2,17.5228475 6.4771525,22 12,22 Z" id="Oval" fill-rule="nonzero"></path>
                <path d="M14.1025391,9.71191406 L14.078125,17.3535156 C14.078125,18.0126986 14.61116,18.4073887 15.6772461,18.5375977 L15.6772461,19.1601562 L9,19.1723633 L9,18.5620117 C9.52083594,18.5620117 9.92366394,18.4663909 10.2084961,18.2751465 C10.4933282,18.083902 10.6357422,17.8133156 10.6357422,17.4633789 L10.6357422,12.2509766 C10.6357422,11.5836555 10.0945692,11.1889655 9.01220703,11.0668945 L9.02441406,10.2856445 L14.1025391,9.71191406 Z M12.3813477,5 C12.8859075,5 13.3070458,5.17089673 13.6447754,5.51269531 C13.9825049,5.8544939 14.1513672,6.27766675 14.1513672,6.78222656 C14.1513672,7.27051025 13.9825049,7.68554517 13.6447754,8.02734375 C13.3070458,8.36914233 12.8981144,8.54003906 12.4179688,8.54003906 C11.8971328,8.54003906 11.465822,8.38134924 11.1240234,8.06396484 C10.7822249,7.74658044 10.6113281,7.34375244 10.6113281,6.85546875 C10.6113281,6.31021863 10.7761214,5.86466644 11.1057129,5.51879883 C11.4353044,5.17293121 11.8605117,5 12.3813477,5 Z" id="ℹ︎"></path>
            </g>
        </g>
    </g>
</svg>