<?xml version="1.0" encoding="UTF-8"?>
<svg width="27px" height="22px" viewBox="0 0 27 22" version="1.1" xmlns="http://www.w3.org/2000/svg" xmlns:xlink="http://www.w3.org/1999/xlink">
    <!-- Generator: Sketch 49.3 (51167) - http://www.bohemiancoding.com/sketch -->
    <title>header_camera_off</title>
    <desc>Created with Sketch.</desc>
    <defs></defs>
    <g id="Symbols" stroke="none" stroke-width="1" fill="none" fill-rule="evenodd">
        <g id="nany-icon-/-header-/-camera" transform="translate(-2.000000, -5.000000)">
            <g id="header_camera_off" transform="translate(2.000000, 5.000000)">
                <path d="M17,16 C14.790861,16 13,14.209139 13,12 C13,9.790861 14.790861,8 17,8 C19.209139,8 21,9.790861 21,12 C21,14.209139 19.209139,16 17,16 Z M17,13 C17.5522847,13 18,12.5522847 18,12 C18,11.4477153 17.5522847,11 17,11 C16.4477153,11 16,11.4477153 16,12 C16,12.5522847 16.4477153,13 17,13 Z" id="Combined-Shape" fill="#FFFFFF"></path>
                <circle id="Oval-Copy-2" stroke="#FFFFFF" stroke-width="1.5" cx="17" cy="12" r="6"></circle>
                <path d="M4,2 L4,0 L10,0 L10,2 L27,2 L27,22 L0,22 L0,2 L4,2 Z M2,4 L2,20 L25,20 L25,4 L2,4 Z" id="Combined-Shape" fill="#FFFFFF"></path>
            </g>
        </g>
    </g>
</svg>