<?xml version="1.0" encoding="UTF-8"?>
<svg width="43px" height="32px" viewBox="0 0 43 32" version="1.1" xmlns="http://www.w3.org/2000/svg" xmlns:xlink="http://www.w3.org/1999/xlink">
    <!-- Generator: Sketch 49.3 (51167) - http://www.bohemiancoding.com/sketch -->
    <title>header_app_AssetAudit_noBack_OFF</title>
    <desc>Created with Sketch.</desc>
    <defs></defs>
    <g id="header_app_AssetAudit_noBack_OFF" stroke="none" stroke-width="1" fill="none" fill-rule="evenodd">
        <path d="M31.7063614,18.46796 L39.9998367,26.7695897 L39.9999998,29.0007846 L37.7529583,29.0006204 L29.4690298,20.7046304 C27.8649827,21.8582112 25.8969637,22.5376189 23.7702372,22.5376189 C18.3742842,22.5376189 14,18.1639739 14,12.7688094 C14,7.37364497 18.3742842,3 23.7702372,3 C29.1661903,3 33.5404745,7.37364497 33.5404745,12.7688094 C33.5404745,14.8957514 32.8606311,16.8639306 31.7063614,18.46796 Z M23.7702372,20.3667723 C27.9670896,20.3667723 31.3693106,16.9650485 31.3693106,12.7688094 C31.3693106,8.57257041 27.9670896,5.17084654 23.7702372,5.17084654 C19.5733849,5.17084654 16.1711638,8.57257041 16.1711638,12.7688094 C16.1711638,16.9650485 19.5733849,20.3667723 23.7702372,20.3667723 Z M18.0588654,12.7594785 L19.3398579,11.4329302 L22.4000632,14.6019655 L27.7252414,9.08740838 L29.0062338,10.4139567 L22.3598216,17.2967348 L18.0588654,12.7594785 Z" id="header_app_AssetAudit_noBack" fill="#FFFFFF"></path>
    </g>
</svg>