<?xml version="1.0" encoding="UTF-8"?>
<svg width="24px" height="25px" viewBox="0 0 24 25" version="1.1" xmlns="http://www.w3.org/2000/svg" xmlns:xlink="http://www.w3.org/1999/xlink">
    <!-- Generator: Sketch 49.3 (51167) - http://www.bohemiancoding.com/sketch -->
    <title>header_recount_OFF</title>
    <desc>Created with Sketch.</desc>
    <defs></defs>
    <g id="Symbols" stroke="none" stroke-width="1" fill="none" fill-rule="evenodd">
        <g id="nany-icon-/-recount" transform="translate(-4.000000, -5.000000)" fill="#FFFFFF">
            <path d="M23,25 L26,25 L26,19 L28,19 L28,27 L26,27 L23,27 L23,30 L18,26 L23,22 L23,25 Z M19.0478007,10.43835 L16.6997182,11.6347578 L16.6997182,19 L15.1343299,19 L15.1343299,12.4323629 L12.7862475,13.6287707 L12.7862475,19 L11.2208592,19 L11.2208592,14.4263759 L8.87277671,15.6227837 L8.87277671,19 L7.3073884,19 L7.3073884,16.4203888 L4.77125291,17.7126144 L4.06058149,16.3178432 L7.3073884,14.6635125 L7.3073884,5 L8.87277671,5 L8.87277671,13.8659073 L11.2208592,12.6694995 L11.2208592,5 L12.7862475,5 L12.7862475,11.8718943 L15.1343299,10.6754866 L15.1343299,5 L16.6997182,5 L16.6997182,9.8778814 L19.0478007,8.68147363 L19.0478007,5 L20.613189,5 L20.613189,7.88386845 L23.2287471,6.55117503 L23.9394185,7.94594623 L20.613189,9.64074481 L20.613189,19 L19.0478007,19 L19.0478007,10.43835 Z" id="header_recount_OFF"></path>
        </g>
    </g>
</svg>