<?xml version="1.0" encoding="UTF-8"?>
<svg width="32px" height="32px" viewBox="0 0 32 32" version="1.1" xmlns="http://www.w3.org/2000/svg" xmlns:xlink="http://www.w3.org/1999/xlink">
    <!-- Generator: Sketch 49.3 (51167) - http://www.bohemiancoding.com/sketch -->
    <title>nany-icon / header / physical count</title>
    <desc>Created with Sketch.</desc>
    <defs></defs>
    <g id="nany-icon-/-header-/-physical-count" stroke="none" stroke-width="1" fill="none" fill-rule="evenodd">
        <path d="M22.225646,14.0058414 L19.225646,15.5344177 L19.225646,25 L17.225646,25 L17.225646,16.5534686 L14.225646,18.082045 L14.225646,25 L12.225646,25 L12.225646,19.1010959 L9.22564599,20.6296722 L9.22564599,25 L7.22564599,25 L7.22564599,21.6487231 L3.907981,23.3391579 L3,21.5571448 L7.22564599,19.4040706 L7.22564599,7 L9.22564599,7 L9.22564599,18.3850197 L12.225646,16.8564434 L12.225646,7 L14.225646,7 L14.225646,15.8373925 L17.225646,14.3088161 L17.225646,7 L19.225646,7 L19.225646,13.2897652 L22.225646,11.7611889 L22.225646,7 L24.225646,7 L24.225646,10.742138 L27.6447843,9 L28.5527653,10.782013 L24.225646,12.9867905 L24.225646,25 L22.225646,25 L22.225646,14.0058414 Z" id="header_app_PhysicalCount_noBack" fill="#FFFFFF"></path>
    </g>
</svg>