<svg xmlns="http://www.w3.org/2000/svg" xmlns:xlink="http://www.w3.org/1999/xlink" viewBox="0 0 32 32"><defs><linearGradient id="a" x1="731.83" y1="7790.37" x2="740.98" y2="7790.37" gradientTransform="translate(-383.57 -4537.47) scale(0.55 0.59)" gradientUnits="userSpaceOnUse"><stop offset="0.1"/><stop offset="0.9" stop-opacity="0"/></linearGradient><linearGradient id="b" x1="-2460.09" y1="-5197.98" x2="-2450.94" y2="-5197.98" gradientTransform="translate(1343.94 4182.77) scale(0.55 0.8)" xlink:href="#a"/><mask id="c" x="0" y="0" width="32" height="32" maskUnits="userSpaceOnUse"><path d="M28.54,21.47l-6.89-6.89A10,10,0,0,0,6.49,3.67l6.92,6.92a2,2,0,0,1-2.82,2.83L3.66,6.49A10,10,0,0,0,12,22a9.56,9.56,0,0,0,2.58-.35l6.88,6.89A5,5,0,0,0,30,25,5,5,0,0,0,28.54,21.47Zm-1.42,5.65a3,3,0,0,1-4.24,0h0l-7.76-7.75A7.9,7.9,0,0,1,12,20a8,8,0,0,1-8-8,7.82,7.82,0,0,1,.28-2.06l4.89,4.89A4,4,0,0,0,16,12a4,4,0,0,0-1.17-2.83L9.94,4.28A7.7,7.7,0,0,1,12,4a8,8,0,0,1,8,8,7.87,7.87,0,0,1-.64,3.12l7.76,7.76A3,3,0,0,1,27.12,27.12Z" fill="#fff"/><rect x="17.9" y="24.53" width="5.02" height="3" transform="translate(24.38 -6.81) rotate(45)" fill="url(#a)"/><rect x="2.18" y="14.07" width="4.99" height="4.11" transform="translate(-8.66 26.32) rotate(-111.23)" fill="url(#b)"/><polygon points="20 23 15 18 9 17 4 19 15 28 20 23" fill-rule="evenodd"/></mask><linearGradient id="d" y1="32" x2="32" gradientUnits="userSpaceOnUse"><stop offset="0.1" stop-color="#a66efa"/><stop offset="0.9" stop-color="#0062ff"/></linearGradient></defs><title>app-icon-light-</title><g mask="url(#c)"><rect width="32" height="32" fill="url(#d)"/></g><path d="M13.07,20l-1.41,1.41L14.25,24H7.07a2,2,0,0,1,0-4h2V18h-2a4,4,0,0,0,0,8h7.18l-2.59,2.58L13.07,30l5-5Z" fill="#061f80"/></svg>