<svg xmlns="http://www.w3.org/2000/svg" xmlns:xlink="http://www.w3.org/1999/xlink" viewBox="0 0 32 32"><defs><clipPath id="a"><rect width="32" height="23" fill="none"/></clipPath><linearGradient id="b" x1="24.2" y1="13.2" x2="8.5" y2="-2.5" gradientTransform="translate(8.57 -9.99) rotate(45)" gradientUnits="userSpaceOnUse"><stop offset="0.12" stop-opacity="0"/><stop offset="0.54"/></linearGradient><mask id="c" x="0" y="-10" width="32" height="42" maskUnits="userSpaceOnUse"><path d="M6,8a10,10,0,0,1,18,6c0,5.52-3.38,10-10,10a10,10,0,0,1-8-4" fill="none" stroke="#fff" stroke-miterlimit="10" stroke-width="2"/><line x1="21.41" y1="21.41" x2="29" y2="29" fill="none" stroke="#fff" stroke-miterlimit="10" stroke-width="2"/><g clip-path="url(#a)"><rect x="5.74" y="-5.75" width="21.21" height="22.2" transform="translate(1.01 13.13) rotate(-45)" fill="url(#b)"/></g></mask><linearGradient id="d" y1="32" x2="32" gradientUnits="userSpaceOnUse"><stop offset="0.1" stop-color="#a66efa"/><stop offset="0.9" stop-color="#0062ff"/></linearGradient></defs><title>app-icon-light-</title><g mask="url(#c)"><rect width="32" height="32" fill="url(#d)"/></g><rect x="2" y="4" width="2" height="2" fill="#061f80"/><rect x="7" y="4" width="9" height="2" fill="#061f80"/><rect x="2" y="9" width="2" height="2" fill="#061f80"/><rect x="7" y="9" width="9" height="2" fill="#061f80"/><rect x="2" y="14" width="2" height="2" fill="#061f80"/><rect x="7" y="14" width="9" height="2" fill="#061f80"/></svg>