<svg xmlns="http://www.w3.org/2000/svg" xmlns:xlink="http://www.w3.org/1999/xlink" viewBox="0 0 32 32"><defs><style>.a,.c{fill:none;}.a{stroke:#fff;stroke-miterlimit:10;stroke-width:2px;}.b{clip-path:url(#a);}.d{fill:url(#b);}.e{mask:url(#c);}.f{fill:#f3f3f3;}</style><clipPath id="a"><rect class="c" width="32" height="23"/></clipPath><linearGradient id="b" x1="24.2" y1="13.2" x2="8.5" y2="-2.5" gradientTransform="translate(8.57 -9.99) rotate(45)" gradientUnits="userSpaceOnUse"><stop offset="0.12" stop-opacity="0"/><stop offset="0.54"/></linearGradient><mask id="c" x="0" y="-10" width="32" height="42" maskUnits="userSpaceOnUse"><path class="a" d="M6,8a10,10,0,0,1,18,6c0,5.52-3.38,10-10,10a10,10,0,0,1-8-4"/><line class="a" x1="21.41" y1="21.41" x2="29" y2="29"/><g class="b"><rect class="d" x="5.74" y="-5.75" width="21.21" height="22.2" transform="translate(1.01 13.13) rotate(-45)"/></g></mask></defs><title>app-icon-monodark-</title><g class="e"><rect class="f" width="32" height="32"/></g><rect class="f" x="2" y="4" width="2" height="2"/><rect class="f" x="7" y="4" width="9" height="2"/><rect class="f" x="2" y="9" width="2" height="2"/><rect class="f" x="7" y="9" width="9" height="2"/><rect class="f" x="2" y="14" width="2" height="2"/><rect class="f" x="7" y="14" width="9" height="2"/></svg>