<svg xmlns="http://www.w3.org/2000/svg" xmlns:xlink="http://www.w3.org/1999/xlink" viewBox="0 0 32 32"><defs><style>.a{fill:#fff;}.b{fill:url(#a);}.c{mask:url(#b);}.d{fill:#f3f3f3;}</style><linearGradient id="a" x1="74.5" y1="-24.5" x2="84.5" y2="-24.5" gradientTransform="translate(-66.5 49.5)" gradientUnits="userSpaceOnUse"><stop offset="0" stop-opacity="0"/><stop offset="0.83"/></linearGradient><mask id="b" x="0" y="0" width="32" height="32" maskUnits="userSpaceOnUse"><path class="a" d="M17,24H4V10H28v5h2V10a2,2,0,0,0-2-2H22V4a2,2,0,0,0-2-2H12a2,2,0,0,0-2,2V8H4a2,2,0,0,0-2,2V24a2,2,0,0,0,2,2H17ZM12,4h8V8H12Z"/><rect class="b" x="8" y="23" width="10" height="4"/><rect x="27" y="12" width="4" height="4"/></mask></defs><title>app-icon-monodark-</title><g class="c"><rect class="d" width="32" height="32"/></g><path class="d" d="M20,27H18a2,2,0,0,1-2-2V19a2,2,0,0,1,2-2h2a2,2,0,0,1,2,2v6A2,2,0,0,1,20,27Zm-2-8v6h2V19Z"/><path class="d" d="M24,14v3h4v2H24v2h4a2,2,0,0,0,2-2V17a2,2,0,0,0-2-2H26V14Z"/><path class="d" d="M30,30V29a2,2,0,0,0-2-2H26V25h3V23H26a2,2,0,0,0-2,2v5h2V29h2v1Z"/></svg>